<svg width="24" height="24" viewBox="0 0 24 24" fill="none" xmlns="http://www.w3.org/2000/svg">
<path d="M11.319 4.39925C11.319 2.60927 10.1275 1.1582 8.65757 1.1582C7.18767 1.1582 5.99609 2.60927 5.99609 4.39925V16.3025C5.99609 18.0925 7.18767 19.5436 8.65757 19.5436C10.1275 19.5436 11.319 18.0925 11.319 16.3025V4.39925Z" fill="#979797"/>
<path d="M23.2861 4.39925V15.8914C22.591 15.1223 21.5822 14.8279 20.6322 15.2257L17.9631 16.345C17.9631 16.345 17.9609 16.3158 17.9609 16.3025V4.39925C17.9609 2.60898 19.1528 1.1582 20.6235 1.1582C21.36 1.1582 22.0245 1.52156 22.506 2.10771C22.9876 2.69386 23.2861 3.50544 23.2861 4.39925V4.39925Z" fill="#979797"/>
<path d="M23.999 18.965C23.999 20.1426 23.3627 21.2433 22.3517 21.6491L16.8697 23.8425C15.5951 24.3544 14.2072 23.5666 13.7692 22.084C13.6298 21.6119 13.6036 21.1239 13.6755 20.6651C13.8237 19.6811 14.4142 18.8218 15.2835 18.4743L17.5016 17.5858L18.3187 17.2569L20.7655 16.2756C21.6371 15.9282 22.5609 16.1854 23.1971 16.8591C23.4935 17.1694 23.7266 17.5673 23.8661 18.0367C23.9554 18.3444 23.999 18.6547 23.999 18.9623V18.965Z" fill="#979797"/>
<path d="M17.2917 3.2384V16.7198L14.871 17.7329C13.9232 18.1308 13.2782 19.1121 13.117 20.234C12.422 19.6532 11.9688 18.6771 11.9688 17.5738V3.2384C11.9688 1.45078 13.1606 0 14.6313 0C15.3656 0 16.0301 0.363358 16.5117 0.949505C16.9932 1.53565 17.2917 2.34459 17.2917 3.2384Z" fill="#979797"/>
<path d="M5.32294 5.65121C5.32294 3.86122 4.13136 2.41016 2.66147 2.41016C1.19158 2.41016 0 3.86122 0 5.65121V13.1491C0 14.9391 1.19158 16.3902 2.66147 16.3902C4.13136 16.3902 5.32294 14.9391 5.32294 13.1491V5.65121Z" fill="#979797"/>
</svg>
