<svg width="30" height="70" viewBox="0 0 30 70" fill="none" xmlns="http://www.w3.org/2000/svg">
<path d="M14.1459 5.50053C14.1459 3.26305 12.6564 1.44922 10.819 1.44922C8.98166 1.44922 7.49219 3.26305 7.49219 5.50053V20.3797C7.49219 22.6171 8.98166 24.431 10.819 24.431C12.6564 24.431 14.1459 22.6171 14.1459 20.3797V5.50053Z" fill="#B88D0D"/>
<path d="M29.1095 5.50053V19.8658C28.2407 18.9043 26.9797 18.5363 25.7922 19.0336L22.4558 20.4327C22.4558 20.4327 22.4531 20.3962 22.4531 20.3797V5.50053C22.4531 3.26269 23.9429 1.44922 25.7813 1.44922C26.7019 1.44922 27.5326 1.90342 28.1345 2.6361C28.7364 3.36878 29.1095 4.38327 29.1095 5.50053V5.50053Z" fill="#B88D0D"/>
<path d="M29.9997 23.7072C29.9997 25.1792 29.2044 26.5551 27.9407 27.0623L21.0882 29.8041C19.4949 30.4439 17.76 29.4593 17.2125 27.606C17.0382 27.0159 17.0055 26.4059 17.0954 25.8323C17.2806 24.6023 18.0187 23.5282 19.1054 23.0939L21.878 21.9833L22.8993 21.5722L25.9579 20.3455C27.0473 19.9112 28.2021 20.2328 28.9974 21.0749C29.3678 21.4627 29.6592 21.96 29.8335 22.5469C29.9452 22.9314 29.9997 23.3193 29.9997 23.7039V23.7072Z" fill="#B88D0D"/>
<path d="M21.6146 4.048V20.8997L18.5887 22.1662C17.404 22.6635 16.5978 23.8901 16.3963 25.2925C15.5274 24.5665 14.9609 23.3464 14.9609 21.9673V4.048C14.9609 1.81348 16.4507 0 18.2891 0C19.207 0 20.0377 0.454198 20.6396 1.18688C21.2415 1.91957 21.6146 2.93074 21.6146 4.048Z" fill="#B88D0D"/>
<path d="M6.65368 7.06303C6.65368 4.82555 5.1642 3.01172 3.32684 3.01172C1.48948 3.01172 0 4.82555 0 7.06303V16.4354C0 18.6729 1.48948 20.4867 3.32684 20.4867C5.1642 20.4867 6.65368 18.6729 6.65368 16.4354V7.06303Z" fill="#B88D0D"/>
<path d="M14.1459 45.5005C14.1459 43.2631 12.6564 41.4492 10.819 41.4492C8.98166 41.4492 7.49219 43.2631 7.49219 45.5005V60.3797C7.49219 62.6171 8.98166 64.431 10.819 64.431C12.6564 64.431 14.1459 62.6171 14.1459 60.3797V45.5005Z" fill="#979797"/>
<path d="M29.1095 45.5005V59.8658C28.2407 58.9043 26.9797 58.5363 25.7922 59.0336L22.4558 60.4327C22.4558 60.4327 22.4531 60.3962 22.4531 60.3797V45.5005C22.4531 43.2627 23.9429 41.4492 25.7813 41.4492C26.7019 41.4492 27.5326 41.9034 28.1345 42.6361C28.7364 43.3688 29.1095 44.3833 29.1095 45.5005V45.5005Z" fill="#979797"/>
<path d="M29.9997 63.7072C29.9997 65.1792 29.2044 66.5551 27.9407 67.0623L21.0882 69.8041C19.4949 70.4439 17.76 69.4593 17.2125 67.606C17.0382 67.0159 17.0055 66.4059 17.0954 65.8323C17.2806 64.6023 18.0187 63.5282 19.1054 63.0939L21.878 61.9833L22.8993 61.5722L25.9579 60.3455C27.0473 59.9112 28.2021 60.2328 28.9974 61.0749C29.3678 61.4627 29.6592 61.96 29.8335 62.5469C29.9452 62.9314 29.9997 63.3193 29.9997 63.7039V63.7072Z" fill="#979797"/>
<path d="M21.6146 44.048V60.8997L18.5887 62.1662C17.404 62.6635 16.5978 63.8901 16.3963 65.2925C15.5274 64.5665 14.9609 63.3464 14.9609 61.9673V44.048C14.9609 41.8135 16.4507 40 18.2891 40C19.207 40 20.0377 40.4542 20.6396 41.1869C21.2415 41.9196 21.6146 42.9307 21.6146 44.048Z" fill="#979797"/>
<path d="M6.65368 47.063C6.65368 44.8256 5.1642 43.0117 3.32684 43.0117C1.48948 43.0117 0 44.8256 0 47.063V56.4354C0 58.6729 1.48948 60.4867 3.32684 60.4867C5.1642 60.4867 6.65368 58.6729 6.65368 56.4354V47.063Z" fill="#979797"/>
</svg>